<?xml version="1.0" encoding="UTF-8"?>
<svg width="512" height="512" viewBox="0 0 512 512" xmlns="http://www.w3.org/2000/svg">
  <defs>
    <linearGradient id="bg" x1="0%" y1="0%" x2="100%" y2="100%">
      <stop offset="0%" style="stop-color:#FF0080;stop-opacity:1" />
      <stop offset="50%" style="stop-color:#FF4500;stop-opacity:1" />
      <stop offset="100%" style="stop-color:#FF8C00;stop-opacity:1" />
    </linearGradient>
  </defs>
  
  <!-- Background gradient -->
  <rect width="512" height="512" fill="url(#bg)"/>
  
  <!-- Male dancer silhouette -->
  <path d="M180 120 C190 110, 210 110, 220 120 L220 140 C220 150, 215 160, 210 170 L200 180 L190 200 L180 220 L170 250 L160 280 L150 320 L140 360 L130 400 L120 440 L110 480 L100 490 C95 495, 90 495, 85 490 L80 480 L90 440 L100 400 L110 360 L120 320 L130 280 L140 250 L150 220 L160 200 L170 180 L175 170 C170 160, 165 150, 165 140 L165 120 Z" fill="#1B1B3A"/>
  
  <!-- Female dancer silhouette -->
  <path d="M290 140 C300 130, 320 130, 330 140 L330 160 C330 170, 325 180, 320 190 L310 200 L300 220 L290 240 L280 270 L270 300 L260 340 L250 380 L240 420 L230 460 L220 500 L210 510 C205 515, 200 515, 195 510 L190 500 L200 460 L210 420 L220 380 L230 340 L240 300 L250 270 L260 240 L270 220 L280 200 L285 190 C280 180, 275 170, 275 160 L275 140 Z" fill="#1B1B3A"/>
  
  <!-- Dancing connection (hands) -->
  <ellipse cx="240" cy="280" rx="25" ry="8" fill="#FFD700" transform="rotate(45 240 280)"/>
  
  <!-- Flowing dress detail -->
  <path d="M240 380 Q280 400, 290 440 Q285 450, 270 445 Q250 440, 240 420 Z" fill="#FF6B35"/>
  
  <!-- Male suit detail -->
  <rect x="160" y="240" width="30" height="60" rx="5" fill="#FF6B35"/>
</svg>